<?xml version="1.0" encoding="UTF-8" standalone="no"?>
<!-- Created with Inkscape (http://www.inkscape.org/) -->

<svg
   width="107.94999mm"
   height="135.46681mm"
   viewBox="0 0 107.94999 135.46681"
   version="1.1"
   id="svg5"
   xml:space="preserve"
   xmlns="http://www.w3.org/2000/svg"
   xmlns:svg="http://www.w3.org/2000/svg"><defs
     id="defs2" /><g
     id="layer1"
     transform="translate(-58.602148,-76.523791)"><path
       style="fill:rgb(197, 0, 0);stroke-width:0.264583"
       d="m 66.539647,211.61186 c -2.954678,-0.82215 -5.441931,-2.88632 -6.791883,-5.63659 -0.684105,-1.39374 -0.748741,-1.77667 -0.748741,-4.43584 0,-2.68226 0.06078,-3.03441 0.775381,-4.49215 0.905933,-1.84805 2.768336,-3.81122 4.41344,-4.65223 2.653667,-1.35661 0.390679,-1.30016 52.256226,-1.30352 l 48.44921,-0.003 0.69714,0.54837 0.69714,0.54837 v 9.3543 9.3543 l -0.69714,0.54837 -0.69714,0.54837 -48.5815,-0.0237 c -38.039762,-0.0185 -48.839863,-0.0955 -49.772133,-0.35495 z M 58.602148,180.6594 v -5.71059 h 7.937499 7.9375 v 4.10104 4.10104 h -3.450738 c -5.070657,0 -7.194443,0.54155 -12.225824,3.1175 -0.10914,0.0559 -0.198437,-2.46817 -0.198437,-5.60899 z m 65.682812,2.55764 -41.870314,-0.0678 v -4.10023 -4.10022 h 3.169645 c 4.786656,0 4.738703,0.03 8.187679,-5.13034 3.652449,-5.46482 3.814839,-5.78615 3.652414,-7.22718 -0.104561,-0.92765 -0.753628,-2.08724 -3.270615,-5.84313 -3.84453,-5.73688 -3.656674,-5.61087 -8.365685,-5.61144 l -3.373438,-4.1e-4 v -19.57917 -19.57916 h 3.223758 c 4.687824,0 4.741822,-0.0345 8.213751,-5.24508 3.581966,-5.37574 3.733887,-5.67821 3.572229,-7.112439 -0.104561,-0.927649 -0.753628,-2.087244 -3.270615,-5.843134 -3.84453,-5.736873 -3.656674,-5.610865 -8.365685,-5.611439 l -3.373438,-4.11e-4 v -5.820833 -5.820833 h 40.511374 40.51137 l 1.02818,0.577874 c 0.65529,0.368291 1.22012,0.97434 1.55738,1.671035 0.52367,1.081761 0.52919,1.633149 0.52919,52.86796 0,28.47614 -0.0893,51.7454 -0.19844,51.70947 -0.10914,-0.0359 -19.04007,-0.0958 -42.06874,-0.13311 z m 3.37699,-31.92478 c 5.77411,-1.029 11.1563,-3.30992 15.00271,-6.35802 8.51088,-6.74447 9.59391,-16.77037 2.63617,-24.40355 -3.83535,-4.20768 -10.11219,-7.38081 -17.24556,-8.71814 -3.99722,-0.74938 -11.95822,-0.68307 -15.74271,0.13114 -12.54492,2.69896 -20.600628,9.88536 -21.096245,18.8197 -0.57023,10.2794 9.747975,19.1075 24.403535,20.87928 2.80011,0.33853 9.22539,0.15156 12.0421,-0.35041 z m -11.24835,-7.60059 c -10.11376,-1.27755 -17.760168,-6.89712 -17.253689,-12.68025 0.469259,-5.35814 7.253209,-10.13969 16.326549,-11.50749 10.7576,-1.62171 22.24122,2.29884 25.61755,8.74592 0.91735,1.75167 0.97092,4.42293 0.12583,6.27518 -2.8578,6.26373 -14.30962,10.49381 -24.81624,9.16664 z m -57.811452,19.35089 v -3.96875 h 13.75027 13.750269 l 1.310489,1.94206 1.310489,1.94206 -1.338474,2.02669 -1.338477,2.02669 H 72.324431 58.602148 Z m 0,-31.48542 v -19.57916 h 7.937499 7.9375 v 19.57916 19.57917 h -7.9375 -7.937499 z m 0,-31.48541 v -3.968753 h 13.75027 13.750269 l 1.310489,1.942061 1.310489,1.94206 -1.338474,2.026692 -1.338477,2.02669 H 72.324431 58.602148 Z m 0,-12.290105 c 0,-2.264845 1.613361,-5.761936 3.553137,-7.701713 2.476927,-2.476927 5.430193,-3.556101 9.731618,-3.556101 h 2.590244 v 5.820833 5.820833 h -7.9375 c -6.759478,0 -7.937499,-0.05697 -7.937499,-0.383852 z"
       id="path257" /></g></svg>
